<?xml version="1.0"?>
<svg width="512" height="512" xmlns="http://www.w3.org/2000/svg" xmlns:svg="http://www.w3.org/2000/svg">
 <!--! Font Awesome Pro 6.0.0 by @fontawesome - https://fontawesome.com License - https://fontawesome.com/license (Commercial License) Copyright 2022 Fonticons, Inc. -->
 <g class="layer">
  <title>Layer 1</title>
  <path d="m217.6,96.1c-12.95,-0.625 -24.66,9.156 -25.52,22.37c-0.88,13.23 9.12,24.63 22.32,24.63c79.53,5.188 148.4,74.09 153.6,153.6c0.8281,12.69 11.39,22.43 23.94,22.43c0.5156,0 1.047,-0.0313 1.578,-0.0625c13.22,-0.8438 23.25,-12.28 22.39,-25.5c-6.608,-101.7675 -95.608,-190.7675 -198.308,-197.4675zm6.4,-96.1c-17.7,0 -32,14.31 -32,32s14.33,32 32,32c123.5,0 224,100.5 224,224c0,17.69 14.33,32 32,32s32,-14.31 32,-32c0,-158.8 -129.2,-288 -288,-288zm-51.7,226.8c-14.6,-2.9 -28.3,9 -28.3,23.8l0,50.37c0,10.25 7.127,18.37 16.75,21.1c18.13,6.75 31.26,24.38 31.26,44.1c0,26.5 -21.5,47.1 -48.01,47.1c-26.5,0 -48.01,-21.5 -48.01,-47.1l0,-246.17c0,-13.25 -10.75,-23.1 -24.01,-23.1l-48.01,0.0076c-13.22,-0.8876 -23.97,9.8924 -23.97,23.0924l0,247.1c0,89.5 82.14,160.2 175,140.7c54.38,-11.5 98.27,-55.5 109.8,-109.7c17.4,-82 -37,-156.3 -112.5,-171.3z" fill="#ffdd57" id="svg_1"/>
 </g>
</svg>